# xmcd
#
# Track frame offsets:
# 150
# 14978
# 27512
# 41373
# 58262
# 75482
# 92542
# 105271
# 120970
# 138510
# 157172
# 176903
# 192302
# 206680
# 221981
# 238556
# 257192
# 266806
# 283820
#
# Disc length: 3984 seconds
#
#
# Revision: 6
# Processed by: cddbd v1.5.2PL0 Copyright (c) Steve Scherf et al.
# Submitted via: FreeRIP 2.96 
#
DISCID=200f8e13
DTITLE=Armandinho - Ao Vivo
DYEAR=2006
DGENRE=Reggae
TTITLE0=Balanço da Rede
TTITLE1=O justiceiro
TTITLE2=Reggae das Tramanda
TTITLE3=Sentimento
TTITLE4=Outra noite que se vai
TTITLE5=Lua Cheia
TTITLE6=Pegando a saideira
TTITLE7=Ana Lua
TTITLE8=Desenho de Deus
TTITLE9=Rosa norte
TTITLE10=Toca uma reggueira aí
TTITLE11=Casinha
TTITLE12=Pela cor dos teus olhos
TTITLE13=Eu juro
TTITLE14=Casa do Sol
TTITLE15=Ursinho
TTITLE16=Paulinha
TTITLE17=Folha de bananeira
TTITLE18=Pescador
EXTD=
EXTT0=
EXTT1=
EXTT2=
EXTT3=
EXTT4=
EXTT5=
EXTT6=
EXTT7=
EXTT8=
EXTT9=
EXTT10=
EXTT11=
EXTT12=
EXTT13=
EXTT14=
EXTT15=
EXTT16=
EXTT17=
EXTT18=
PLAYORDER=
